<svg width="141" height="140" viewBox="0 0 141 140" fill="none" xmlns="http://www.w3.org/2000/svg">
<path d="M108.613 140H119.181C124.529 140 128.922 135.925 129.559 130.705L140.064 25.7844H108.231V0H95.6889V25.7844H64.0473L65.9572 40.6821C76.844 43.6744 87.0305 49.0859 93.1423 55.0705C102.31 64.111 108.613 73.4698 108.613 88.7494V140ZM0 133.633V127.331H95.6889V133.633C95.6889 137.135 92.824 140 89.2588 140H6.4302C2.86494 140 0 137.135 0 133.633ZM95.6889 89.0678C95.6889 38.1355 0 38.1355 0 89.0678H95.6889ZM0.12733 101.864H95.6253V114.598H0.12733V101.864Z" fill="#FFCC00"/>
</svg>
